<svg fill="#FAB005" xmlns="http://www.w3.org/2000/svg"  viewBox="0 0 64 64" width="128px" height="128px"><path d="M 21.054688 3.5839844 C 20.882687 3.5839844 20.710969 3.5905156 20.542969 3.6035156 C 19.597969 3.6735156 18.700859 3.9228438 17.880859 4.3398438 C 15.055859 5.7798437 13.668766 9.1177188 13.759766 14.261719 C 13.791766 16.057719 14.002719 18.065953 14.386719 20.251953 C 6.0707187 22.145953 1.2175625 25.780094 0.9765625 30.371094 C 0.8085625 33.561094 3.3484687 36.907516 7.6054688 39.103516 C 8.0324687 39.322516 8.5074219 39.439453 8.9824219 39.439453 C 10.108422 39.439453 11.128484 38.816453 11.646484 37.814453 C 12.404484 36.343453 11.827375 34.532438 10.359375 33.773438 C 7.995375 32.553438 6.98975 31.084734 6.96875 30.677734 C 7.02875 29.539734 9.4427969 27.465031 15.716797 26.082031 C 16.159797 27.680031 16.668328 29.292438 17.236328 30.898438 C 13.213328 38.320437 11.136703 44.856797 11.220703 49.841797 C 11.282703 53.508797 12.670953 56.405953 15.126953 58.001953 C 16.457953 58.865953 17.892531 59.302734 19.394531 59.302734 C 21.235531 59.302734 23.222797 58.652453 25.466797 57.314453 C 26.886797 56.468453 27.353812 54.624125 26.507812 53.203125 C 25.966812 52.297125 24.980688 51.736328 23.929688 51.736328 C 23.388687 51.736328 22.856625 51.883109 22.390625 52.162109 C 20.824625 53.095109 19.889813 53.292969 19.382812 53.292969 C 19.023813 53.292969 18.756531 53.205703 18.394531 52.970703 C 17.673531 52.502703 17.24575 51.325234 17.21875 49.740234 C 17.17075 46.875234 18.268969 42.820578 20.292969 38.267578 C 25.574969 49.209578 33.117313 57.665422 39.570312 59.857422 C 40.676313 60.233422 41.748766 60.423828 42.759766 60.423828 C 43.943766 60.423828 45.051734 60.164297 46.052734 59.654297 L 46.109375 59.626953 L 46.164062 59.59375 L 46.269531 59.53125 L 46.320312 59.501953 L 46.369141 59.46875 C 51.980141 55.67875 51.681047 43.761453 45.623047 29.814453 C 45.150047 28.719453 44.068094 28.009766 42.871094 28.009766 C 42.458094 28.009766 42.057734 28.092813 41.677734 28.257812 C 40.941734 28.577813 40.374078 29.162203 40.080078 29.908203 C 39.786078 30.654203 39.801094 31.470078 40.121094 32.205078 C 45.614094 44.855078 44.825016 52.816094 43.166016 54.371094 C 43.047016 54.404094 42.909906 54.421875 42.753906 54.421875 C 42.402906 54.421875 41.980047 54.338781 41.498047 54.175781 C 36.672047 52.535781 29.966734 44.622375 25.552734 35.359375 C 24.963734 34.124375 24.389797 32.800109 23.841797 31.412109 C 24.510797 30.266109 25.201344 29.141547 25.902344 28.060547 C 26.619344 26.956547 27.364094 25.873031 28.121094 24.832031 L 28.207031 24.832031 L 28.548828 24.832031 C 29.673828 24.832031 30.9055 24.867453 32.3125 24.939453 C 39.5715 25.320453 46.229594 26.655266 51.058594 28.697266 C 55.472594 30.564266 57.010797 32.476641 56.966797 33.306641 C 56.917797 34.240641 55.708375 35.363594 53.734375 36.308594 C 53.012375 36.654594 52.468172 37.260625 52.201172 38.015625 C 51.934172 38.771625 51.977266 39.585594 52.322266 40.308594 C 52.818266 41.344594 53.88225 42.013672 55.03125 42.013672 C 55.47925 42.013672 55.927078 41.910797 56.330078 41.716797 C 61.588078 39.199797 62.837984 35.924094 62.958984 33.621094 C 63.358984 25.983094 51.031406 19.974844 32.941406 18.964844 C 38.008406 13.530844 42.505078 10.939562 44.830078 10.851562 C 44.883078 10.849562 44.923891 10.847656 44.962891 10.847656 C 45.280891 10.847656 45.531984 10.905484 45.708984 11.021484 C 46.559984 11.573484 47.182969 13.086469 46.542969 15.105469 C 46.300969 15.869469 46.369281 16.682531 46.738281 17.394531 C 47.108281 18.106531 47.733047 18.631047 48.498047 18.873047 C 48.786047 18.966047 49.09525 19.013672 49.40625 19.013672 C 50.71825 19.013672 51.865719 18.170969 52.261719 16.917969 C 53.857719 11.879969 51.764469 7.7982344 48.980469 5.9902344 C 47.811469 5.2322344 46.449594 4.8496094 44.933594 4.8496094 C 44.826594 4.8496094 44.720328 4.8514688 44.611328 4.8554688 C 39.197328 5.0614688 31.952281 10.295297 25.113281 18.904297 C 23.463281 18.974297 21.857453 19.097531 20.314453 19.269531 C 19.975453 17.366531 19.785766 15.621297 19.759766 14.154297 C 19.700766 10.831297 20.410516 9.7845469 20.603516 9.6855469 C 20.676516 9.6485469 20.791094 9.6038906 20.996094 9.5878906 C 21.261094 9.5878906 22.216734 9.7018281 24.302734 11.173828 C 24.807734 11.531828 25.40725 11.722656 26.03125 11.722656 C 27.00425 11.722656 27.920422 11.248125 28.482422 10.453125 C 28.943422 9.796125 29.122328 8.9999375 28.986328 8.2109375 C 28.849328 7.4209375 28.413813 6.7315313 27.757812 6.2695312 C 25.163813 4.4385312 23.033688 3.5839844 21.054688 3.5839844 z M 10.023438 4.0898438 C 9.6337187 4.0715625 9.2546719 4.28275 9.0761719 4.65625 C 8.8381719 5.15425 9.048875 5.7512344 9.546875 5.9902344 L 11.351562 6.8554688 C 11.491563 6.9224688 11.63625 6.953125 11.78125 6.953125 C 12.15425 6.953125 12.513547 6.7437656 12.685547 6.3847656 C 12.923547 5.8867656 12.712844 5.2887812 12.214844 5.0507812 L 10.410156 4.1875 C 10.285156 4.1275 10.153344 4.0959375 10.023438 4.0898438 z M 21.054688 5.5839844 C 22.593688 5.5839844 24.380422 6.3312969 26.607422 7.9042969 C 27.059422 8.2222969 27.166656 8.8468281 26.847656 9.2988281 C 26.652656 9.5748281 26.344297 9.7226562 26.029297 9.7226562 C 25.830297 9.7226562 25.628125 9.6630625 25.453125 9.5390625 C 23.604125 8.2350625 22.113578 7.5878906 21.017578 7.5878906 C 20.959578 7.5878906 20.901703 7.59075 20.845703 7.59375 C 20.420703 7.62575 20.044312 7.7262969 19.695312 7.9042969 C 18.368313 8.5812969 17.698766 10.756406 17.759766 14.191406 C 17.797766 16.308406 18.136891 18.813234 18.712891 21.490234 C 20.998891 21.161234 23.478281 20.950094 26.113281 20.871094 C 32.518281 12.599094 39.723734 7.0434688 44.677734 6.8554688 C 44.763734 6.8524687 44.849594 6.8515625 44.933594 6.8515625 C 46.076594 6.8515625 47.046672 7.1249219 47.888672 7.6699219 C 50.036672 9.0659219 51.632516 12.279406 50.353516 16.316406 C 50.219516 16.740406 49.828297 17.015625 49.404297 17.015625 C 49.303297 17.015625 49.201609 16.998797 49.099609 16.966797 C 48.572609 16.800797 48.280266 16.238891 48.447266 15.712891 C 49.409266 12.678891 48.313781 10.329656 46.800781 9.3476562 C 46.297781 9.0206563 45.679891 8.8496094 44.962891 8.8496094 C 44.894891 8.8496094 44.825859 8.8524688 44.755859 8.8554688 C 41.149859 8.9914687 34.923922 13.114844 28.669922 20.839844 C 29.884922 20.842844 31.143531 20.876266 32.519531 20.947266 C 49.064531 21.815266 61.290937 27.219531 60.960938 33.519531 C 60.867937 35.282531 59.838937 37.821969 55.460938 39.917969 C 55.321937 39.984969 55.174297 40.015625 55.029297 40.015625 C 54.656297 40.015625 54.298953 39.806266 54.126953 39.447266 C 53.888953 38.949266 54.099656 38.352281 54.597656 38.113281 C 56.525656 37.190281 58.846891 35.627063 58.962891 33.414062 C 59.191891 29.042063 48.579063 23.791359 32.414062 22.943359 C 31.034063 22.872359 29.764828 22.833984 28.548828 22.833984 C 28.432828 22.833984 28.314219 22.834937 28.199219 22.835938 C 27.830219 22.836938 27.465563 22.841656 27.101562 22.847656 C 26.134563 24.137656 25.171656 25.514609 24.222656 26.974609 C 23.291656 28.410609 22.431859 29.836141 21.630859 31.244141 C 22.276859 32.945141 22.982141 34.620703 23.744141 36.220703 C 28.443141 46.082703 35.480469 54.246266 40.855469 56.072266 C 41.548469 56.307266 42.180953 56.423828 42.751953 56.423828 C 43.282953 56.423828 43.760641 56.322141 44.181641 56.119141 C 47.388641 53.852141 47.435125 44.031203 41.953125 31.408203 C 41.732125 30.901203 41.965656 30.31375 42.472656 30.09375 C 42.602656 30.03775 42.736141 30.009766 42.869141 30.009766 C 43.256141 30.009766 43.624109 30.234328 43.787109 30.611328 C 49.360109 43.444328 49.960047 54.6305 45.248047 57.8125 L 45.144531 57.873047 C 44.423531 58.240047 43.625766 58.425781 42.759766 58.425781 C 41.966766 58.425781 41.115891 58.271844 40.212891 57.964844 C 34.273891 55.946844 26.929453 47.554078 21.939453 37.080078 C 21.387453 35.921078 20.867 34.729438 20.375 33.523438 C 17.021 39.898438 15.14975 45.704391 15.21875 49.775391 C 15.25775 52.070391 15.997687 53.800438 17.304688 54.648438 C 17.845688 55.000437 18.493812 55.294922 19.382812 55.294922 C 20.369812 55.294922 21.655969 54.931859 23.417969 53.880859 C 23.578969 53.784859 23.753734 53.738281 23.927734 53.738281 C 24.268734 53.738281 24.600109 53.914516 24.787109 54.228516 C 25.069109 54.703516 24.914453 55.316609 24.439453 55.599609 C 22.526453 56.740609 20.881578 57.304688 19.392578 57.304688 C 18.259578 57.304688 17.215891 56.977172 16.212891 56.326172 C 14.331891 55.104172 13.267797 52.789594 13.216797 49.808594 C 13.135797 45.019594 15.359875 38.375313 19.421875 31.070312 C 18.522875 28.620313 17.763875 26.144859 17.171875 23.755859 C 9.933875 25.042859 5.1287031 27.564031 4.9707031 30.582031 C 4.8897031 32.108031 6.7274531 34.151781 9.4394531 35.550781 C 9.9294531 35.803781 10.122141 36.405484 9.8691406 36.896484 C 9.6911406 37.240484 9.3424688 37.439453 8.9804688 37.439453 C 8.8254688 37.439453 8.6684844 37.402172 8.5214844 37.326172 C 5.0274844 35.523172 2.8486563 32.834563 2.9726562 30.476562 C 3.1826562 26.481562 8.4735156 23.3265 16.728516 21.8125 C 16.142516 19.0575 15.799766 16.464562 15.759766 14.226562 C 15.683766 9.9125625 16.701109 7.1840937 18.787109 6.1210938 C 19.370109 5.8240938 20.013266 5.6496094 20.697266 5.5996094 C 20.814266 5.5896094 20.933688 5.5839844 21.054688 5.5839844 z M 8.5449219 9.7421875 C 7.9899219 9.6741875 7.4995469 10.071141 7.4355469 10.619141 C 7.3715469 11.167141 7.7635 11.664516 8.3125 11.728516 L 10.298828 11.960938 C 10.337828 11.965938 10.376062 11.966797 10.414062 11.966797 C 10.915062 11.966797 11.34725 11.591031 11.40625 11.082031 C 11.47025 10.534031 11.078297 10.038609 10.529297 9.9746094 L 8.5449219 9.7421875 z M 10.279297 15.318359 L 8.2871094 15.474609 C 7.7361094 15.517609 7.3241875 15.997828 7.3671875 16.548828 C 7.4081875 17.072828 7.8452813 17.470703 8.3632812 17.470703 C 8.3892812 17.470703 8.4154063 17.47075 8.4414062 17.46875 L 10.433594 17.3125 C 10.984594 17.2695 11.396516 16.789281 11.353516 16.238281 C 11.309516 15.689281 10.840297 15.273359 10.279297 15.318359 z M 24.574219 22.933594 C 22.677219 23.033594 20.867969 23.203453 19.167969 23.439453 C 19.605969 25.189453 20.137094 26.987203 20.746094 28.783203 C 21.319094 27.824203 21.915875 26.859766 22.546875 25.884766 C 23.205875 24.869766 23.885219 23.891594 24.574219 22.933594 z M 32.009766 27.007812 C 29.257766 27.007812 27.017578 29.246047 27.017578 31.998047 C 27.017578 34.750047 29.257766 36.990234 32.009766 36.990234 C 34.761766 36.990234 37 34.750047 37 31.998047 C 37 29.246047 34.761766 27.007812 32.009766 27.007812 z M 32.009766 29.007812 C 33.661766 29.007812 35 30.346047 35 31.998047 C 35 33.650047 33.661766 34.990234 32.009766 34.990234 C 30.357766 34.990234 29.017578 33.650047 29.017578 31.998047 C 29.017578 30.346047 30.357766 29.007813 32.009766 29.007812 z M 55.710938 45.880859 L 53.714844 46.019531 C 53.163844 46.057531 52.747156 46.536891 52.785156 47.087891 C 52.822156 47.615891 53.262203 48.017578 53.783203 48.017578 C 53.807203 48.017578 53.830516 48.017625 53.853516 48.015625 L 55.847656 47.876953 C 56.398656 47.838953 56.815344 47.359594 56.777344 46.808594 C 56.738344 46.257594 56.259937 45.841859 55.710938 45.880859 z M 53.828125 51.113281 C 53.283125 51.053281 52.787516 51.452953 52.728516 52.001953 C 52.670516 52.550953 53.067188 53.043563 53.617188 53.101562 L 55.605469 53.3125 C 55.640469 53.3165 55.677891 53.318359 55.712891 53.318359 C 56.217891 53.318359 56.649078 52.938781 56.705078 52.425781 C 56.763078 51.876781 56.366406 51.382219 55.816406 51.324219 L 53.828125 51.113281 z M 52.5625 55.957031 C 52.172594 55.96425 51.806844 56.202391 51.652344 56.587891 C 51.447344 57.100891 51.697938 57.681719 52.210938 57.886719 L 54.066406 58.630859 C 54.188406 58.679859 54.3135 58.701172 54.4375 58.701172 C 54.8345 58.701172 55.210187 58.463266 55.367188 58.072266 C 55.572187 57.559266 55.323547 56.978437 54.810547 56.773438 L 52.953125 56.029297 C 52.824625 55.977797 52.692469 55.954625 52.5625 55.957031 z"/></svg>